<svg xmlns="http://www.w3.org/2000/svg" height="48" viewBox="0 -960 960 960" width="48"><path d="M226.385-185.385h143.77v-252h220.69v252h142.77v-380.922L480-757.23 226.385-566.769v381.384Zm0 58.384q-24.509 0-41.446-16.938-16.938-16.937-16.938-41.446v-380.922q0-13.43 5.786-25.577 5.786-12.148 17.445-20.5l253.615-191.922q8.372-5.462 17.395-8.193 9.024-2.73 17.924-2.73t17.82 2.73q8.919 2.731 17.167 8.193l253.615 191.922q11.659 8.352 17.445 20.5 5.786 12.147 5.786 25.577v380.922q0 24.509-16.938 41.446-16.937 16.938-41.446 16.938H532.462v-252H428.538v252H226.385ZM480-471.615Z"/></svg>