<svg xmlns="http://www.w3.org/2000/svg" height="48" viewBox="0 -960 960 960" width="48"><path d="M539.691-84.001H419.924q-13.453 0-23.65-7.808-10.196-7.808-11.196-21.423l-14.462-95q-17.538-6-39.539-18.073-22.002-12.074-37.538-25.543l-87 39.693q-11.23 6.615-24.901 1.377t-20.175-17.377L101.002-337q-7.615-11.801-3.808-24.555 3.808-12.753 14.423-19.906l77.231-57.935q-1-8.683-1.885-20.519-.885-11.836-.885-21.7 0-8.612.885-19.641.885-11.029 1.885-22.129l-77.231-56.154q-11.615-7.615-14.423-20.672T101.002-625l60.461-107.46q8-10.846 20.23-16.038 12.231-5.193 24.462.423l84.999 38.923q16.308-12.924 38.231-25.578 21.924-12.654 40.847-19.038l14.846-94q1-13.615 11.196-21.423 10.197-7.808 23.65-7.808h119.767q13.578 0 24.059 7.88 10.48 7.879 12.172 21.351l13.462 94.384q20.077 7.154 41.154 19.231 21.077 12.077 36.769 25.001l86.538-38.923q11.231-5.616 24.71-.76 13.478 4.855 19.982 15.99l60.461 107.23q6.616 11.499 3.808 24.98t-13.423 21.096l-80.769 56.693q1.769 10.923 2.962 22.5 1.192 11.577 1.192 20.346 0 8.385-1.385 19.654-1.384 11.269-1.769 21.962l78.384 56.923q10.616 7.615 13.923 20.73 3.308 13.116-3.692 24.731l-60.076 109.229q-8 12.231-20.923 16.539-12.923 4.307-24.539-2.308l-87.384-39.692q-16.692 13.692-36.846 25.962-20.154 12.269-38.077 17.654l-14.462 95.384q-2 13.615-12.389 21.423-10.388 7.808-23.842 7.808ZM477.846-354.31q52.876 0 89.784-36.866 36.907-36.866 36.907-89.684 0-52.817-36.907-89.825-36.908-37.007-89.784-37.007-52.692 0-89.691 36.866-37 36.866-37 89.684 0 52.817 37 89.825 36.999 37.007 89.691 37.007Zm-.618-58.384q-28.228 0-47.959-20.056-19.73-20.057-19.73-48.369 0-28.311 19.936-48.25 19.937-19.939 48.077-19.939 28.525 0 48.563 20.056 20.039 20.057 20.039 48.369 0 28.311-20.156 48.25-20.157 19.939-48.77 19.939ZM480-481Zm-42.846 338.615h85.52L537.096-255q32.596-8 60.586-23.931 27.99-15.931 54.499-41.146l103.28 45.231 40-70.847L704-413.923q4-17.406 6.807-33.964 2.808-16.558 2.808-33.259 0-17.469-2.5-32.815-2.5-15.346-6.115-33.346l91.23-68-39-70.847-105.615 44.231q-21.077-23.692-51.919-42.564-30.843-18.872-63.637-23.513l-12.213-110.615h-87.692l-12.231 110.231q-35.23 7.615-64.192 24.153-28.961 16.539-53.115 41.924l-102.564-43.847-41.282 70.847 91.461 67.846q-4.385 16.846-6.692 33.153-2.308 16.308-2.308 33.178 0 16.13 2.308 32.553 2.307 16.423 6.307 34.654l-91.076 68.23 41 70.847 103.461-44.847q26 26.385 54.654 42.231 28.654 15.846 61.654 23.846l13.615 111.231Z"/></svg>