<svg xmlns="http://www.w3.org/2000/svg" height="48" viewBox="0 -960 960 960" width="48"><path d="M273.412-145Q229-145 198.5-175.917 168-206.833 168-251h-22q-27.5 0-47.25-19.75T79-318v-204h453v-134q0-27.5 19.75-47.25T599-723h64v-17q0-13.95 9.737-23.975Q682.475-774 696-774h8q13.95 0 23.975 10.025Q738-753.95 738-740v17h28q20 0 38.06 12.909Q822.12-697.182 830-678l48.3 145.91q.7 5.09 1.7 11.215t1 9.744v260.128h-88q0 43.67-31.088 74.836Q730.824-145 686.412-145T611.5-175.917Q581-206.833 581-251H380q0 44-31.088 75t-75.5 31Zm.553-35q29.535 0 50.285-20.232Q345-220.465 345-250.482q0-30.018-20.715-50.768T273.535-322q-30.035 0-50.285 20.732Q203-280.535 203-250.518q0 30.018 20.227 50.268Q243.455-180 273.965-180Zm413 0q29.535 0 50.285-20.232Q758-220.465 758-250.482q0-30.018-20.715-50.768T686.535-322q-30.035 0-50.285 20.732Q616-280.535 616-250.518q0 30.018 20.227 50.268Q656.455-180 686.965-180ZM567-522h277l-47-144q-4-10-12.5-16t-18.5-6H599q-14 0-23 9t-9 23v134ZM79-562v-35h40v-91H79v-35h381v35h-40v91h40v35H79Zm75-35h98v-91h-98v91Zm133 0h98v-91h-98v91Z"/></svg>